<svg xmlns="http://www.w3.org/2000/svg" width="709" height="153" viewBox="0 0 37 16" fill="none">
<symbol xmlns="http://www.w3.org/2000/svg" id="YallaDeliveryLabelIconMobile" viewBox="0 0 37 16">
            <rect fill="#f8e751" height="16" rx="8" x="0.5" width="36.1"/>
            <path d="M6.50681 11.874C6.43809 12.1283 6.62959 12.3784 6.89296 12.3784H7.95322C8.13353 12.3784 8.29156 12.2577 8.33908 12.0838L9.10464 9.28139C9.12073 9.22251 9.15008 9.16809 9.19044 9.12229L13.2391 4.52937C13.4668 4.27105 13.2834 3.86486 12.939 3.86486H11.7316C11.613 3.86486 11.5005 3.91753 11.4245 4.00862L9.08639 6.81115C8.88059 7.05783 8.48263 6.97351 8.39457 6.66455L7.6793 4.15521C7.63032 3.98338 7.47331 3.86486 7.29462 3.86486H6.061C5.78625 3.86486 5.5933 4.13549 5.68284 4.39523L7.23773 8.90548C7.26382 8.98116 7.2666 9.06293 7.24571 9.14022L6.50681 11.874Z" fill="#555555"/>
            <path d="M13.7806 12.5C14.1729 12.5 14.5326 12.427 14.8595 12.2811C15.0153 12.2077 15.1637 12.1195 15.3046 12.0167C15.4284 11.9263 15.6326 12.0457 15.594 12.1941C15.5698 12.2873 15.6402 12.3784 15.7365 12.3784H17.0418C17.2227 12.3784 17.381 12.257 17.428 12.0823L18.317 8.77838C18.3578 8.61622 18.3905 8.45405 18.415 8.29189C18.4477 8.12973 18.4641 7.96351 18.4641 7.79324C18.4641 7.1527 18.2434 6.65811 17.802 6.30946C17.3606 5.96081 16.6945 5.78649 15.8036 5.78649C15.3377 5.78649 14.9004 5.83108 14.4917 5.92027C14.2036 5.97743 13.9317 6.04869 13.6761 6.13406C13.4932 6.19515 13.3914 6.38584 13.4295 6.57489L13.5622 7.23313C13.6119 7.47948 13.8744 7.61987 14.1162 7.55154C14.2279 7.51999 14.3448 7.4911 14.4672 7.46487C14.7778 7.39189 15.0925 7.35541 15.4112 7.35541C15.8771 7.35541 16.2 7.42838 16.3798 7.57432C16.5596 7.71216 16.6495 7.89459 16.6495 8.12162C16.6495 8.21892 16.6414 8.30811 16.625 8.38919C16.6087 8.46216 16.5923 8.53514 16.576 8.60811C16.5625 8.65471 16.5133 8.68093 16.4669 8.66684C16.2148 8.59034 15.9528 8.53022 15.681 8.48649C15.3867 8.42973 15.0598 8.40135 14.7001 8.40135C14.2996 8.40135 13.9277 8.45405 13.5844 8.55946C13.2411 8.65676 12.9428 8.80676 12.6894 9.00946C12.436 9.21216 12.2358 9.45946 12.0886 9.75135C11.9415 10.0432 11.868 10.3757 11.868 10.7486C11.868 11.0081 11.9129 11.2432 12.0028 11.4541C12.1009 11.6649 12.2317 11.8514 12.3952 12.0135C12.5668 12.1676 12.7671 12.2892 12.9959 12.3784C13.233 12.4595 13.4945 12.5 13.7806 12.5ZM14.5775 11.2351C14.316 11.2351 14.1075 11.1703 13.9522 11.0405C13.7969 10.9108 13.7193 10.7446 13.7193 10.5419C13.7193 10.2257 13.8419 9.97838 14.0871 9.8C14.3405 9.61351 14.6633 9.52027 15.0557 9.52027C15.2845 9.52027 15.5052 9.54459 15.7177 9.59324C15.8613 9.62063 15.9936 9.65356 16.1148 9.69204C16.2106 9.72247 16.2605 9.82502 16.2327 9.92162C16.1836 10.1 16.106 10.2703 15.9997 10.4324C15.8935 10.5865 15.7668 10.7243 15.6197 10.8459C15.4725 10.9676 15.3091 11.0649 15.1292 11.1378C14.9576 11.2027 14.7737 11.2351 14.5775 11.2351Z" fill="#555555"/>
            <path d="M18.6729 11.8739C18.604 12.1282 18.7955 12.3784 19.059 12.3784H20.0938C20.2744 12.3784 20.4327 12.2573 20.4799 12.0829L22.6664 4.0045C22.7352 3.75022 22.5437 3.5 22.2803 3.5H21.2455C21.0648 3.5 20.9066 3.6211 20.8594 3.7955L18.6729 11.8739Z" fill="#555555"/>
            <path d="M21.8821 11.8739C21.8133 12.1282 22.0048 12.3784 22.2682 12.3784H23.303C23.4837 12.3784 23.6419 12.2573 23.6891 12.0829L25.8757 4.0045C25.9445 3.75022 25.753 3.5 25.4895 3.5H24.4547C24.2741 3.5 24.1158 3.6211 24.0686 3.7955L21.8821 11.8739Z" fill="#555555"/>
            <path d="M26.9165 12.5C27.3088 12.5 27.6685 12.427 27.9954 12.2811C28.1512 12.2077 28.2996 12.1195 28.4405 12.0167C28.5643 11.9263 28.7685 12.0457 28.73 12.1941C28.7057 12.2873 28.7761 12.3784 28.8725 12.3784H30.1777C30.3586 12.3784 30.517 12.257 30.564 12.0823L31.4529 8.77838C31.4937 8.61622 31.5264 8.45405 31.551 8.29189C31.5837 8.12973 31.6 7.96351 31.6 7.79324C31.6 7.1527 31.3793 6.65811 30.9379 6.30946C30.4966 5.96081 29.8304 5.78649 28.9395 5.78649C28.4736 5.78649 28.0363 5.83108 27.6276 5.92027C27.3395 5.97743 27.0677 6.04869 26.812 6.13406C26.6291 6.19515 26.5273 6.38584 26.5654 6.57489L26.6981 7.23313C26.7478 7.47948 27.0103 7.61987 27.2522 7.55154C27.3638 7.51999 27.4808 7.4911 27.6031 7.46487C27.9137 7.39189 28.2284 7.35541 28.5471 7.35541C29.013 7.35541 29.3359 7.42838 29.5157 7.57432C29.6955 7.71216 29.7855 7.89459 29.7855 8.12162C29.7855 8.21892 29.7773 8.30811 29.7609 8.38919C29.7446 8.46216 29.7282 8.53514 29.7119 8.60811C29.6985 8.65471 29.6492 8.68093 29.6028 8.66684C29.3507 8.59034 29.0888 8.53022 28.8169 8.48649C28.5226 8.42973 28.1957 8.40135 27.836 8.40135C27.4355 8.40135 27.0636 8.45405 26.7203 8.55946C26.377 8.65676 26.0787 8.80676 25.8253 9.00946C25.5719 9.21216 25.3717 9.45946 25.2246 9.75135C25.0774 10.0432 25.0039 10.3757 25.0039 10.7486C25.0039 11.0081 25.0488 11.2432 25.1387 11.4541C25.2368 11.6649 25.3676 11.8514 25.5311 12.0135C25.7027 12.1676 25.903 12.2892 26.1318 12.3784C26.3689 12.4595 26.6304 12.5 26.9165 12.5ZM27.7134 11.2351C27.4519 11.2351 27.2435 11.1703 27.0882 11.0405C26.9329 10.9108 26.8552 10.7446 26.8552 10.5419C26.8552 10.2257 26.9778 9.97838 27.223 9.8C27.4764 9.61351 27.7993 9.52027 28.1916 9.52027C28.4205 9.52027 28.6411 9.54459 28.8537 9.59324C28.9972 9.62063 29.1296 9.65356 29.2507 9.69204C29.3465 9.72247 29.3964 9.82502 29.3686 9.92162C29.3196 10.1 29.2419 10.2703 29.1356 10.4324C29.0294 10.5865 28.9027 10.7243 28.7556 10.8459C28.6084 10.9676 28.445 11.0649 28.2652 11.1378C28.0935 11.2027 27.9096 11.2351 27.7134 11.2351Z" fill="#555555"/>
        </symbol>
</svg>